<?xml version="1.0" encoding="UTF-8" standalone="no"?>
<svg width="81px" height="37px" viewBox="0 0 81 37" version="1.1" xmlns="http://www.w3.org/2000/svg" xmlns:xlink="http://www.w3.org/1999/xlink">
    <!-- Generator: Sketch 39.1 (31720) - http://www.bohemiancoding.com/sketch -->
    <title>Fill 1</title>
    <desc>Created with Sketch.</desc>
    <defs></defs>
    <g id="Footer" stroke="none" stroke-width="1" fill="none" fill-rule="evenodd">
        <g transform="translate(-1218.000000, -82.000000)" id="Group" fill="#FE5200">
            <g>
                <g id="Group-7">
                    <path d="M1264.44398,105.436199 C1264.44648,102.98435 1262.24793,100.860137 1259.69857,100.851263 C1257.21445,100.842701 1255.00525,102.958456 1254.99742,105.35382 C1254.98917,107.866226 1257.12936,109.985636 1259.67215,109.983234 C1262.24417,109.980833 1264.44147,107.887108 1264.44398,105.436199 M1278.74642,106.433832 C1278.86722,106.639832 1278.93978,106.756771 1279.00598,106.877364 C1280.41603,109.447718 1283.79148,110.494945 1286.40976,109.173747 C1288.49117,108.123491 1289.30775,105.902596 1288.32693,103.900648 C1287.72584,102.67394 1286.65387,102.108876 1285.36327,101.850358 C1283.79639,101.536607 1282.3168,101.705855 1280.97838,102.616828 C1280.70326,102.804034 1280.48619,102.863652 1280.16973,102.777305 C1278.37858,102.288773 1276.58253,101.817677 1274.7871,101.344702 C1274.33375,101.225258 1273.87634,101.120953 1273.33581,100.988874 C1274.33866,103.958804 1274.31089,106.817328 1273.30824,109.802084 C1275.20108,108.629669 1276.95214,107.545167 1278.74642,106.433832 M1261.46893,92.8131899 C1265.99342,92.9137363 1269.36052,94.9540031 1272.07078,98.4448316 C1272.33389,97.6335695 1272.57644,96.9054174 1272.80635,96.1734021 C1273.73737,93.2094241 1274.66901,90.245655 1275.59126,87.2789623 C1276.06528,85.7543742 1276.53105,84.2269671 1276.97688,82.6938174 C1277.11449,82.2203202 1277.3135,81.9978234 1277.8676,82.000016 C1283.71422,82.0227773 1289.56095,82.0186009 1295.40757,82.0042968 C1295.83982,82.0032527 1295.93306,82.1554818 1295.93129,82.5481661 C1295.91865,85.1755278 1295.91082,87.8032026 1295.93734,90.4304598 C1295.94235,90.9235861 1295.79085,91.0445967 1295.32383,91.0425086 C1291.79155,91.0266383 1288.25917,91.0407336 1284.72689,91.0237148 C1284.30006,91.0216266 1284.06702,91.1233215 1283.93171,91.5545329 C1283.63821,92.4905644 1283.29188,93.4102037 1282.96216,94.3508292 C1283.69678,94.2234496 1284.36678,94.0519047 1285.04586,93.9998043 C1287.14157,93.8389092 1289.14675,94.2095631 1291.08324,95.0475541 C1292.73834,95.7636991 1294.18201,96.7536059 1295.4037,98.0718808 C1297.02685,99.8234552 1298.06646,101.864766 1298.42124,104.236638 C1298.85632,107.144548 1298.25085,109.83017 1296.64148,112.282541 C1294.6696,115.287448 1291.85211,117.173815 1288.43071,118.053047 C1283.31809,119.366937 1278.50439,118.696001 1274.26443,115.340801 C1273.3357,114.605862 1272.53687,113.706896 1271.65095,112.857316 C1268.00288,117.188954 1263.29631,119.304187 1257.56913,118.481231 C1251.80468,117.65295 1247.84913,114.423772 1245.99189,108.858848 C1245.62051,109.776817 1245.28316,110.753359 1244.83931,111.678949 C1243.83124,113.781549 1242.20141,115.323886 1240.21971,116.490872 C1237.87123,117.873985 1235.30975,118.49115 1232.58727,118.625943 C1228.79501,118.813566 1225.28121,118.008569 1222.06436,115.983233 C1220.51972,115.010762 1219.24603,113.744066 1218.1586,112.28014 C1217.88933,111.917525 1217.97568,111.728648 1218.32117,111.499156 C1220.37344,110.136507 1222.41047,108.750888 1224.4616,107.386465 C1225.44827,106.729937 1225.4798,106.724195 1226.22288,107.603219 C1227.49929,109.113189 1229.12474,109.777025 1231.07939,109.799787 C1232.5689,109.817119 1233.93071,109.528635 1235.11116,108.562951 C1236.74935,107.222959 1236.62468,104.481687 1234.89065,103.276279 C1233.28337,102.158888 1231.487,102.085801 1229.65023,102.260896 C1228.89399,102.332938 1228.14987,102.541758 1227.40386,102.705158 C1227.13302,102.764567 1226.96148,102.727711 1226.80204,102.465225 C1225.97272,101.099757 1225.12345,99.7462965 1224.27659,98.3915828 C1224.0473,98.0247921 1224.0733,97.7502994 1224.43414,97.4516881 C1226.81572,95.480436 1229.18164,93.4901814 1231.55195,91.5052516 C1231.69112,91.3886262 1231.82299,91.2631259 1232.08047,91.032172 L1231.37069,91.032172 C1228.1341,91.0317544 1224.89751,91.0216266 1221.66102,91.0418821 C1221.18324,91.04491 1221.02642,90.9109525 1221.02997,90.4319216 C1221.04939,87.8046644 1221.05388,85.1770939 1221.03467,82.5497323 C1221.03133,82.0915832 1221.19462,82.0085776 1221.60809,82.0092041 C1228.4466,82.0192274 1235.28511,82.0148422 1242.12352,82.0143202 C1242.81951,82.0142157 1243.51603,82.0342624 1244.21139,82.0133805 C1244.58309,82.0021042 1244.68708,82.1481732 1244.68479,82.5010774 C1244.67236,84.3963194 1244.61473,86.294798 1244.70807,88.1854459 C1244.74733,88.9800025 1244.49424,89.4346017 1243.92448,89.9240736 C1242.1325,91.4634878 1240.39345,93.0646081 1238.633,94.6407745 C1238.41416,94.8367512 1238.1901,95.026881 1237.84941,95.3232996 C1239.86169,95.7665181 1241.5076,96.592502 1242.89876,97.897308 C1244.28291,99.1955362 1245.24505,100.759382 1245.84436,102.65546 C1245.94156,102.494982 1246.01361,102.422104 1246.03292,102.337324 C1246.60237,99.8307638 1247.78492,97.5935807 1249.12407,95.4379413 C1250.56273,93.1223466 1252.06226,90.8443393 1253.54164,88.554116 C1254.88821,86.4693708 1256.23927,84.3874446 1257.60411,82.3144976 C1257.70038,82.1682198 1257.92548,82.019645 1258.09139,82.0188098 C1261.46695,82.0034616 1264.84272,82.0093085 1268.21838,82.0129628 C1268.26735,82.0130672 1268.31632,82.0393784 1268.484,82.0876156 C1266.14366,85.6658349 1263.82556,89.2100167 1261.46893,92.8131899" id="Fill-1"></path>
                </g>
            </g>
        </g>
    </g>
</svg>